<svg width="41" height="54" viewBox="0 0 41 54" xmlns="http://www.w3.org/2000/svg">
    <g fill="#2178B3" fill-rule="nonzero">
        <path d="M35.929 20.672v-5.59C35.929 6.766 29.008 0 20.5 0S5.071 6.766 5.071 15.082v5.59H0V33.96C0 45.01 9.196 54 20.5 54S41 45.01 41 33.96V20.673h-5.071zm-27.621-5.59c0-6.572 5.47-11.918 12.192-11.918 6.723 0 12.192 5.346 12.192 11.918v5.59H8.308v-5.59zm29.455 18.879c0 9.305-7.744 16.875-17.263 16.875-9.519 0-17.263-7.57-17.263-16.875V23.836h34.526V33.96z"/>
        <path d="M18.364 39.164V44h3.272v-4.836C24.152 38.487 26 36.29 26 33.69c0-3.138-2.692-5.69-6-5.69s-6 2.552-6 5.69c0 2.6 1.848 4.797 4.364 5.474zM20 31.104c1.504 0 2.727 1.16 2.727 2.586S21.504 36.276 20 36.276c-1.504 0-2.727-1.16-2.727-2.586s1.223-2.587 2.727-2.587z"/>
    </g>
</svg>
