<svg width="47" height="38" viewBox="0 0 47 38" xmlns="http://www.w3.org/2000/svg">
    <path d="M41.492 0H5.508C2.47 0 0 2.459 0 5.48v4.522l20.213 14.96a5.515 5.515 0 0 0 3.287 1.092 5.514 5.514 0 0 0 3.287-1.091L47 10.002V5.48C47 2.459 44.53 0 41.492 0zm1.836 8.166L24.596 22.031a1.832 1.832 0 0 1-2.192 0L3.672 8.166V5.481c0-1.008.823-1.827 1.836-1.827h35.984c1.013 0 1.836.82 1.836 1.827v2.685zm0 9.107L47 14.556v17.963C47 35.541 44.53 38 41.492 38H5.508C2.47 38 0 35.541 0 32.52V14.555l3.672 2.717V32.52c0 1.008.823 1.827 1.836 1.827h35.984c1.013 0 1.836-.82 1.836-1.827V17.273z" fill="#2178B3" fill-rule="nonzero"/>
</svg>
