<svg width="51" height="45" viewBox="0 0 51 45" xmlns="http://www.w3.org/2000/svg">
    <g fill="#2178B3" fill-rule="nonzero">
        <path d="M44.864 40.75H8.545c-2.356 0-4.272-1.906-4.272-4.25 0-2.344 1.916-4.25 4.272-4.25h4.273c1.18 0 2.137-.952 2.137-2.125A2.132 2.132 0 0 0 12.818 28H8.545C3.833 28 0 31.812 0 36.5 0 41.188 3.833 45 8.545 45h36.319C46.043 45 47 44.048 47 42.875a2.132 2.132 0 0 0-2.136-2.125z"/>
        <path d="M48.588 2.414c-3.22-3.216-8.461-3.22-11.688 0l-3.302 3.303c-.041.034-.091.047-.13.086-.039.039-.052.088-.086.13L22.307 17.007A11.25 11.25 0 0 0 19 25.006v4.835A2.16 2.16 0 0 0 21.158 32h4.835c3.02 0 5.86-1.174 8.002-3.31L48.586 14.1c3.218-3.221 3.218-8.464.002-11.685zM30.945 25.636a6.97 6.97 0 0 1-4.952 2.047h-2.676v-2.677a6.97 6.97 0 0 1 2.044-4.95l9.655-9.655 5.581 5.582-9.652 9.653zm14.589-14.59-1.884 1.885-5.582-5.582 1.882-1.883a3.957 3.957 0 0 1 5.582 0 3.955 3.955 0 0 1 .002 5.58z"/>
    </g>
</svg>
